<svg width="16" height="16" viewBox="0 0 16 16" fill="none" xmlns="http://www.w3.org/2000/svg">
<path d="M0 4C0 1.79086 1.79086 0 4 0H16V16H0V4Z" fill="#F59898"/>
<path d="M11.0172 2C9.80491 2 8.72897 2.47579 8 3.29357C7.27103 2.47579 6.19509 2 4.98276 2C3.92686 2.00127 2.91457 2.41888 2.16793 3.16123C1.4213 3.90358 1.00128 4.91006 1 5.95991C1 10.3002 7.38509 13.7681 7.65664 13.9139C7.76216 13.9704 7.88014 14 8 14C8.11986 14 8.23784 13.9704 8.34336 13.9139C8.61491 13.7681 15 10.3002 15 5.95991C14.9987 4.91006 14.5787 3.90358 13.8321 3.16123C13.0854 2.41888 12.0731 2.00127 11.0172 2ZM10.6859 10.5414C9.84551 11.2505 8.94708 11.8887 8 12.4494C7.05292 11.8887 6.15449 11.2505 5.31405 10.5414C4.00638 9.42602 2.44828 7.72506 2.44828 5.95991C2.44828 5.29158 2.7153 4.65062 3.19061 4.17804C3.66592 3.70546 4.31057 3.43997 4.98276 3.43997C6.0569 3.43997 6.95603 4.00395 7.32957 4.91233C7.38394 5.04475 7.47674 5.15807 7.59614 5.23784C7.71555 5.31761 7.85615 5.36021 8 5.36021C8.14385 5.36021 8.28445 5.31761 8.40385 5.23784C8.52326 5.15807 8.61606 5.04475 8.67043 4.91233C9.04397 4.00395 9.9431 3.43997 11.0172 3.43997C11.6894 3.43997 12.3341 3.70546 12.8094 4.17804C13.2847 4.65062 13.5517 5.29158 13.5517 5.95991C13.5517 7.72506 11.9936 9.42602 10.6859 10.5414Z" fill="white"/>
</svg>
